<?xml version="1.0" encoding="utf-8"?>
<!-- Generator: Adobe Illustrator 16.0.0, SVG Export Plug-In . SVG Version: 6.00 Build 0)  -->
<!DOCTYPE svg PUBLIC "-//W3C//DTD SVG 1.1//EN" "http://www.w3.org/Graphics/SVG/1.1/DTD/svg11.dtd">
<svg version="1.1" id="Layer_1" xmlns="http://www.w3.org/2000/svg" xmlns:xlink="http://www.w3.org/1999/xlink" x="0px" y="0px"
	 width="322.5px" height="482.5px" viewBox="0 0 322.5 482.5" enable-background="new 0 0 322.5 482.5" xml:space="preserve">
<rect y="364.5" fill="#CCCCCC" stroke="#000000" stroke-miterlimit="10" width="13" height="13"/>
<rect x="309" y="364.5" fill="#CCCCCC" stroke="#000000" stroke-miterlimit="10" width="13" height="13"/>
<rect y="469.5" fill="#CCCCCC" stroke="#000000" stroke-miterlimit="10" width="13" height="13"/>
<rect x="1" y="2.5" fill="#CCCCCC" stroke="#000000" stroke-miterlimit="10" width="11" height="11"/>
<rect x="1" y="100.5" fill="#CCCCCC" stroke="#000000" stroke-miterlimit="10" width="11" height="11"/>
<rect x="310" y="100.5" fill="#CCCCCC" stroke="#000000" stroke-miterlimit="10" width="11" height="11"/>
<rect x="310.5" y="471" transform="matrix(0.9998 -0.0214 0.0214 0.9998 -10.123 6.8704)" fill="#CCCCCC" stroke="#000000" stroke-miterlimit="10" width="11" height="11"/>
<rect x="310.5" y="2" transform="matrix(0.9998 -0.0214 0.0214 0.9998 -0.0881 6.749)" fill="#CCCCCC" stroke="#000000" stroke-miterlimit="10" width="11" height="11"/>
<rect x="10" y="12.5" fill="#1B1464" stroke="#000000" stroke-miterlimit="10" width="300" height="88"/>
<text transform="matrix(1 0 0 1 136.0229 62)" fill="#FFFFFF" font-family="'MyriadPro-Regular'" font-size="12.9731">TITLE BANNER</text>
<text transform="matrix(1 0 0 1 40.9409 140.4609)" fill="#FFFFFF" font-family="'MyriadPro-Regular'" font-size="12.9731">TEXT HOOK</text>
<text transform="matrix(1 0 0 1 37.1143 273)"><tspan x="0" y="0" fill="#FFFFFF" font-family="'MyriadPro-Regular'" font-size="12.9731" letter-spacing="16">	</tspan><tspan x="19.46" y="0" fill="#FFFFFF" font-family="'MyriadPro-Regular'" font-size="12.9731">CONTENT</tspan><tspan x="0" y="15.568" fill="#FFFFFF" font-family="'MyriadPro-Regular'" font-size="12.9731">2-COLUMN LAYOUT</tspan></text>
<text transform="matrix(1 0 0 1 33.0283 440.5586)"><tspan x="0" y="0" fill="#FFFFFF" font-family="'MyriadPro-Regular'" font-size="12.9731" letter-spacing="16">	</tspan><tspan x="19.46" y="0" fill="#FFFFFF" font-family="'MyriadPro-Regular'" font-size="12.9731">CONTENT</tspan><tspan x="0" y="15.568" fill="#FFFFFF" font-family="'MyriadPro-Regular'" font-size="12.9731">2-COLUMN LAYOUT</tspan></text>
<rect x="12" y="12.5" stroke="#000000" stroke-width="3" stroke-miterlimit="10" width="66" height="55"/>
<line fill="#FFFFFF" stroke="#FFFFFF" stroke-width="6" stroke-miterlimit="10" x1="18.5" y1="39" x2="71.5" y2="39"/>
<line fill="#FFFFFF" stroke="#FFFFFF" stroke-width="6" stroke-miterlimit="10" x1="18.5" y1="59" x2="71.5" y2="59"/>
<line fill="#FFFFFF" stroke="#FFFFFF" stroke-width="6" stroke-miterlimit="10" x1="18.5" y1="22" x2="71.5" y2="22"/>
<rect x="10" y="112.5" fill="#2E3192" stroke="#000000" stroke-miterlimit="10" width="300" height="358"/>
<rect x="10" y="112.5" fill="#29ABE2" stroke="#000000" stroke-miterlimit="10" width="300" height="252"/>
<text transform="matrix(1 0 0 1 116.7168 222.646)"><tspan x="0" y="0" font-family="'MyriadPro-Regular'" font-size="12.3465" letter-spacing="15">	</tspan><tspan x="18.52" y="0" font-family="'MyriadPro-Regular'" font-size="12.3465">PORTFOLIO</tspan><tspan x="0" y="14.815" font-family="'MyriadPro-Regular'" font-size="12.3465">SLIDESHOW FORMAT</tspan></text>
<rect x="10" y="377.5" fill="#29ABE2" stroke="#000000" stroke-miterlimit="10" width="299" height="93"/>
<text transform="matrix(1 0 0 1 100 418.6143)"><tspan x="0" y="0" font-family="'MyriadPro-Regular'" font-size="12.3465" letter-spacing="15">	</tspan><tspan x="18.52" y="0" font-family="'MyriadPro-Regular'" font-size="12.3465">PORTFOLIO BLURB</tspan></text>
<text transform="matrix(1 0 0 1 107.0479 298.0215)" font-family="'MyriadPro-Regular'" font-size="12">SWIPE  TO INTERACT</text>
</svg>
