<?xml version="1.0" encoding="utf-8"?>
<!-- Generator: Adobe Illustrator 16.0.0, SVG Export Plug-In . SVG Version: 6.00 Build 0)  -->
<!DOCTYPE svg PUBLIC "-//W3C//DTD SVG 1.1//EN" "http://www.w3.org/Graphics/SVG/1.1/DTD/svg11.dtd">
<svg version="1.1" id="Layer_1" xmlns="http://www.w3.org/2000/svg" xmlns:xlink="http://www.w3.org/1999/xlink" x="0px" y="0px"
	 width="1366px" height="768px" viewBox="0 0 1366 768" enable-background="new 0 0 1366 768" xml:space="preserve">
<rect x="-1.5" y="-0.5" fill="#CCCCCC" stroke="#000000" stroke-miterlimit="10" width="20" height="20"/>
<rect x="-1.5" y="202.5" fill="#CCCCCC" stroke="#000000" stroke-miterlimit="10" width="20" height="20"/>
<rect x="277.5" y="124.5" fill="#CCCCCC" stroke="#000000" stroke-miterlimit="10" width="20" height="20"/>
<rect x="811.5" y="748.5" fill="#CCCCCC" stroke="#000000" stroke-miterlimit="10" width="20" height="20"/>
<rect x="1345.5" y="125.5" fill="#CCCCCC" stroke="#000000" stroke-miterlimit="10" width="20" height="20"/>
<rect x="-1.5" y="310.5" fill="#CCCCCC" stroke="#000000" stroke-miterlimit="10" width="20" height="20"/>
<rect x="-1.5" y="411.5" fill="#CCCCCC" stroke="#000000" stroke-miterlimit="10" width="20" height="20"/>
<rect x="-1.5" y="512.5" fill="#CCCCCC" stroke="#000000" stroke-miterlimit="10" width="20" height="20"/>
<rect x="277.5" y="-0.5" fill="#CCCCCC" stroke="#000000" stroke-miterlimit="10" width="20" height="20"/>
<rect x="-1.5" y="748.5" fill="#CCCCCC" stroke="#000000" stroke-miterlimit="10" width="20" height="20"/>
<rect x="277.5" y="748.5" fill="#CCCCCC" stroke="#000000" stroke-miterlimit="10" width="20" height="20"/>
<rect x="1345.5" y="-0.5" fill="#CCCCCC" stroke="#000000" stroke-miterlimit="10" width="20" height="20"/>
<rect x="1345.5" y="748.5" fill="#CCCCCC" stroke="#000000" stroke-miterlimit="10" width="20" height="20"/>
<rect x="18.5" y="19.5" stroke="#000000" stroke-miterlimit="10" width="259" height="729"/>
<rect x="297.5" y="19.5" fill="#1B1464" stroke="#000000" stroke-miterlimit="10" width="1048" height="106"/>
<rect x="18.5" y="19.5" fill="#666666" stroke="#000000" stroke-miterlimit="10" width="259" height="183"/>
<rect x="18.5" y="228.5" fill="#666666" stroke="#000000" stroke-miterlimit="10" width="259" height="81"/>
<rect x="18.5" y="330.5" fill="#666666" stroke="#000000" stroke-miterlimit="10" width="259" height="81"/>
<rect x="18.5" y="431.5" fill="#666666" stroke="#000000" stroke-miterlimit="10" width="259" height="81"/>
<text transform="matrix(1 0 0 1 87 269)" fill="#FFFFFF" font-family="'MyriadPro-Regular'" font-size="24">MAIN MENU</text>
<text transform="matrix(1 0 0 1 87 378)" fill="#FFFFFF" font-family="'MyriadPro-Regular'" font-size="24">STATS</text>
<text transform="matrix(1 0 0 1 87 479)" fill="#FFFFFF" font-family="'MyriadPro-Regular'" font-size="24">ADVENTURES</text>
<text transform="matrix(1 0 0 1 87 125)" fill="#FFFFFF" font-family="'MyriadPro-Regular'" font-size="24">LOGO</text>
<rect x="18" y="677" fill="#E6E6E6" width="259" height="72"/>
<text transform="matrix(1 0 0 1 61 700)" font-family="'MyriadPro-Regular'" font-size="18">SOCIAL MEDIA/CONTACT</text>
<text transform="matrix(1 0 0 1 708 89)" fill="#FFFFFF" font-family="'MyriadPro-Regular'" font-size="24">TITLE BANNER</text>
<rect x="297.5" y="145.5" fill="#2E3192" stroke="#000000" stroke-miterlimit="10" width="1048" height="602"/>
<ellipse cx="82.5" cy="728" rx="15.5" ry="15"/>
<ellipse cx="213.5" cy="728" rx="15.5" ry="15"/>
<ellipse cx="148.5" cy="728" rx="15.5" ry="15"/>
<rect x="456.5" y="165.5" fill="#29ABE2" stroke="#000000" stroke-miterlimit="10" width="710" height="408"/>
<text transform="matrix(1 0 0 1 698 399.5)"><tspan x="0" y="0" font-family="'MyriadPro-Regular'" font-size="24" letter-spacing="30">	</tspan><tspan x="36" y="0" font-family="'MyriadPro-Regular'" font-size="24">PORTFOLIO</tspan><tspan x="0" y="28.8" font-family="'MyriadPro-Regular'" font-size="24">SLIDESHOW FORMAT</tspan></text>
<rect x="398.5" y="608.5" fill="#29ABE2" stroke="#000000" stroke-miterlimit="10" width="867" height="127"/>
<text transform="matrix(1 0 0 1 682.5 677)"><tspan x="0" y="0" font-family="'MyriadPro-Regular'" font-size="24" letter-spacing="30">	</tspan><tspan x="36" y="0" font-family="'MyriadPro-Regular'" font-size="24">PORTFOLIO BLURB</tspan></text>
<polyline fill="none" stroke="#000000" stroke-width="6" stroke-miterlimit="10" points="398.5,330.5 354,370.299 398.5,403.204 "/>
<polyline fill="none" stroke="#000000" stroke-width="6" stroke-miterlimit="10" points="1209.014,403.213 1253.498,363.396 
	1208.986,330.509 "/>
</svg>
