<?xml version="1.0" encoding="utf-8"?>
<!-- Generator: Adobe Illustrator 16.0.0, SVG Export Plug-In . SVG Version: 6.00 Build 0)  -->
<!DOCTYPE svg PUBLIC "-//W3C//DTD SVG 1.1//EN" "http://www.w3.org/Graphics/SVG/1.1/DTD/svg11.dtd">
<svg version="1.1" id="Layer_1" xmlns="http://www.w3.org/2000/svg" xmlns:xlink="http://www.w3.org/1999/xlink" x="0px" y="0px"
	 width="1366px" height="768px" viewBox="0 0 1366 768" enable-background="new 0 0 1366 768" xml:space="preserve">
<rect x="-0.5" y="-0.5" fill="#CCCCCC" stroke="#000000" stroke-miterlimit="10" width="20" height="20"/>
<rect x="-0.5" y="202.5" fill="#CCCCCC" stroke="#000000" stroke-miterlimit="10" width="20" height="20"/>
<rect x="278.5" y="202.5" fill="#CCCCCC" stroke="#000000" stroke-miterlimit="10" width="20" height="20"/>
<rect x="278.5" y="330.5" fill="#CCCCCC" stroke="#000000" stroke-miterlimit="10" width="20" height="20"/>
<rect x="812.5" y="748.5" fill="#CCCCCC" stroke="#000000" stroke-miterlimit="10" width="20" height="20"/>
<rect x="1346.5" y="202.5" fill="#CCCCCC" stroke="#000000" stroke-miterlimit="10" width="20" height="20"/>
<rect x="1346.5" y="330.5" fill="#CCCCCC" stroke="#000000" stroke-miterlimit="10" width="20" height="20"/>
<rect x="-0.5" y="310.5" fill="#CCCCCC" stroke="#000000" stroke-miterlimit="10" width="20" height="20"/>
<rect x="-0.5" y="411.5" fill="#CCCCCC" stroke="#000000" stroke-miterlimit="10" width="20" height="20"/>
<rect x="-0.5" y="512.5" fill="#CCCCCC" stroke="#000000" stroke-miterlimit="10" width="20" height="20"/>
<rect x="278.5" y="-0.5" fill="#CCCCCC" stroke="#000000" stroke-miterlimit="10" width="20" height="20"/>
<rect x="-0.5" y="748.5" fill="#CCCCCC" stroke="#000000" stroke-miterlimit="10" width="20" height="20"/>
<rect x="278.5" y="748.5" fill="#CCCCCC" stroke="#000000" stroke-miterlimit="10" width="20" height="20"/>
<rect x="1346.5" y="-0.5" fill="#CCCCCC" stroke="#000000" stroke-miterlimit="10" width="20" height="20"/>
<rect x="1346.5" y="748.5" fill="#CCCCCC" stroke="#000000" stroke-miterlimit="10" width="20" height="20"/>
<rect x="19.5" y="19.5" stroke="#000000" stroke-miterlimit="10" width="259" height="729"/>
<rect x="298.5" y="19.5" fill="#1B1464" stroke="#000000" stroke-miterlimit="10" width="1048" height="183"/>
<rect x="19.5" y="19.5" fill="#666666" stroke="#000000" stroke-miterlimit="10" width="259" height="183"/>
<rect x="19.5" y="228.5" fill="#666666" stroke="#000000" stroke-miterlimit="10" width="259" height="81"/>
<rect x="19.5" y="330.5" fill="#666666" stroke="#000000" stroke-miterlimit="10" width="259" height="81"/>
<rect x="19.5" y="431.5" fill="#666666" stroke="#000000" stroke-miterlimit="10" width="259" height="81"/>
<text transform="matrix(1 0 0 1 88 269)" fill="#FFFFFF" font-family="'MyriadPro-Regular'" font-size="24">MAIN MENU</text>
<text transform="matrix(1 0 0 1 88 378)" fill="#FFFFFF" font-family="'MyriadPro-Regular'" font-size="24">STATS</text>
<text transform="matrix(1 0 0 1 88 479)" fill="#FFFFFF" font-family="'MyriadPro-Regular'" font-size="24">ADVENTURES</text>
<text transform="matrix(1 0 0 1 88 125)" fill="#FFFFFF" font-family="'MyriadPro-Regular'" font-size="24">LOGO</text>
<rect x="19" y="677" fill="#E6E6E6" width="259" height="72"/>
<text transform="matrix(1 0 0 1 62 700)" font-family="'MyriadPro-Regular'" font-size="18">SOCIAL MEDIA/CONTACT</text>
<text transform="matrix(1 0 0 1 709 125)" fill="#FFFFFF" font-family="'MyriadPro-Regular'" font-size="24">TITLE BANNER</text>
<rect x="298.5" y="224.5" fill="#2E3192" stroke="#000000" stroke-miterlimit="10" width="1048" height="106"/>
<text transform="matrix(1 0 0 1 709 277.5)" fill="#FFFFFF" font-family="'MyriadPro-Regular'" font-size="24">TEXT HOOK</text>
<rect x="298.5" y="353.5" fill="#2E3192" stroke="#000000" stroke-miterlimit="10" width="515" height="394"/>
<rect x="832.5" y="353.5" fill="#2E3192" stroke="#000000" stroke-miterlimit="10" width="515" height="394"/>
<ellipse cx="83.5" cy="728" rx="15.5" ry="15"/>
<ellipse cx="214.5" cy="728" rx="15.5" ry="15"/>
<ellipse cx="149.5" cy="728" rx="15.5" ry="15"/>
<text transform="matrix(1 0 0 1 491 538.5)"><tspan x="0" y="0" fill="#FFFFFF" font-family="'MyriadPro-Regular'" font-size="24" letter-spacing="30">	</tspan><tspan x="36" y="0" fill="#FFFFFF" font-family="'MyriadPro-Regular'" font-size="24">CONTENT</tspan><tspan x="0" y="28.8" fill="#FFFFFF" font-family="'MyriadPro-Regular'" font-size="24">2-COLUMN LAYOUT</tspan></text>
<text transform="matrix(1 0 0 1 1031 538.5)"><tspan x="0" y="0" fill="#FFFFFF" font-family="'MyriadPro-Regular'" font-size="24" letter-spacing="30">	</tspan><tspan x="36" y="0" fill="#FFFFFF" font-family="'MyriadPro-Regular'" font-size="24">CONTENT</tspan><tspan x="0" y="28.8" fill="#FFFFFF" font-family="'MyriadPro-Regular'" font-size="24">2-COLUMN LAYOUT</tspan></text>
</svg>
