<?xml version="1.0" encoding="utf-8"?>
<!-- Generator: Adobe Illustrator 16.0.0, SVG Export Plug-In . SVG Version: 6.00 Build 0)  -->
<!DOCTYPE svg PUBLIC "-//W3C//DTD SVG 1.1//EN" "http://www.w3.org/Graphics/SVG/1.1/DTD/svg11.dtd">
<svg version="1.1" id="Layer_1" xmlns="http://www.w3.org/2000/svg" xmlns:xlink="http://www.w3.org/1999/xlink" x="0px" y="0px"
	 width="321.5px" height="477.5px" viewBox="0 0 321.5 477.5" enable-background="new 0 0 321.5 477.5" xml:space="preserve">
<rect x="0.5" y="167" fill="#CCCCCC" stroke="#000000" stroke-miterlimit="10" width="13" height="13"/>
<rect x="0.5" y="357" fill="#CCCCCC" stroke="#000000" stroke-miterlimit="10" width="13" height="13"/>
<rect x="0.5" y="463" fill="#CCCCCC" stroke="#000000" stroke-miterlimit="10" width="13" height="13"/>
<rect x="1.5" fill="#CCCCCC" stroke="#000000" stroke-miterlimit="10" width="11" height="11"/>
<rect x="1.5" y="98" fill="#CCCCCC" stroke="#000000" stroke-miterlimit="10" width="11" height="11"/>
<rect x="310.5" y="168" transform="matrix(0.9998 -0.0214 0.0214 0.9998 -3.6325 6.7868)" fill="#CCCCCC" stroke="#000000" stroke-miterlimit="10" width="11" height="11"/>
<rect x="310.5" y="358" transform="matrix(0.9998 -0.0214 0.0214 0.9998 -7.7052 6.8445)" fill="#CCCCCC" stroke="#000000" stroke-miterlimit="10" width="11" height="11"/>
<rect x="310.5" y="465" transform="matrix(0.9998 -0.0214 0.0214 0.9998 -9.9947 6.869)" fill="#CCCCCC" stroke="#000000" stroke-miterlimit="10" width="11" height="11"/>
<rect x="310.5" y="0" transform="matrix(0.9998 -0.0214 0.0214 0.9998 -0.0454 6.7485)" fill="#CCCCCC" stroke="#000000" stroke-miterlimit="10" width="11" height="11"/>
<rect x="10.5" y="10" fill="#1B1464" stroke="#000000" stroke-miterlimit="10" width="300" height="88"/>
<text transform="matrix(1 0 0 1 197.3555 60)" fill="#FFFFFF" font-family="'MyriadPro-Regular'" font-size="12.9731">TITLE BANNER</text>
<rect x="10.5" y="110" fill="#2E3192" stroke="#000000" stroke-miterlimit="10" width="300" height="57"/>
<text transform="matrix(1 0 0 1 213.7793 137)" fill="#FFFFFF" font-family="'MyriadPro-Regular'" font-size="12.9731">TEXT HOOK</text>
<rect x="13.5" y="180" fill="#2E3192" stroke="#000000" stroke-miterlimit="10" width="297" height="177"/>
<rect x="13.5" y="370" fill="#2E3192" stroke="#000000" stroke-miterlimit="10" width="297" height="93"/>
<text transform="matrix(1 0 0 1 188.4463 278.333)"><tspan x="0" y="0" fill="#FFFFFF" font-family="'MyriadPro-Regular'" font-size="12.9731" letter-spacing="16">	</tspan><tspan x="19.46" y="0" fill="#FFFFFF" font-family="'MyriadPro-Regular'" font-size="12.9731">CONTENT</tspan><tspan x="0" y="15.568" fill="#FFFFFF" font-family="'MyriadPro-Regular'" font-size="12.9731">2-COLUMN LAYOUT</tspan></text>
<text transform="matrix(1 0 0 1 191.6943 407.165)"><tspan x="0" y="0" fill="#FFFFFF" font-family="'MyriadPro-Regular'" font-size="12.9731" letter-spacing="16">	</tspan><tspan x="19.46" y="0" fill="#FFFFFF" font-family="'MyriadPro-Regular'" font-size="12.9731">CONTENT</tspan><tspan x="0" y="15.568" fill="#FFFFFF" font-family="'MyriadPro-Regular'" font-size="12.9731">2-COLUMN LAYOUT</tspan></text>
<rect x="12.5" y="10" stroke="#000000" stroke-width="3" stroke-miterlimit="10" width="66" height="55"/>
<line fill="#FFFFFF" stroke="#FFFFFF" stroke-width="6" stroke-miterlimit="10" x1="19" y1="36.5" x2="72" y2="36.5"/>
<line fill="#FFFFFF" stroke="#FFFFFF" stroke-width="6" stroke-miterlimit="10" x1="19" y1="56.5" x2="72" y2="56.5"/>
<line fill="#FFFFFF" stroke="#FFFFFF" stroke-width="6" stroke-miterlimit="10" x1="19" y1="19.5" x2="72" y2="19.5"/>
<rect x="0.5" y="-1" opacity="0.5" stroke="#000000" stroke-miterlimit="10" width="169" height="479"/>
<rect x="0.5" y="-1" opacity="0.5" fill="#666666" stroke="#000000" stroke-miterlimit="10" width="169" height="120"/>
<rect x="0.5" y="136" opacity="0.5" fill="#666666" stroke="#000000" stroke-miterlimit="10" width="169" height="54"/>
<rect x="0.5" y="203" opacity="0.5" fill="#666666" stroke="#000000" stroke-miterlimit="10" width="169" height="54"/>
<rect x="0.5" y="270" opacity="0.5" fill="#666666" stroke="#000000" stroke-miterlimit="10" width="169" height="52"/>
<text transform="matrix(1 0 0 1 45.1694 163.1768)" opacity="0.5" fill="#FFFFFF" font-family="'MyriadPro-Regular'" font-size="15.7442">MAIN MENU</text>
<text transform="matrix(1 0 0 1 45.1694 234.6821)" opacity="0.5" fill="#FFFFFF" font-family="'MyriadPro-Regular'" font-size="15.7442">STATS</text>
<text transform="matrix(1 0 0 1 45.1694 300.9375)" opacity="0.5" fill="#FFFFFF" font-family="'MyriadPro-Regular'" font-size="15.7442">ADVENTURES</text>
<text transform="matrix(1 0 0 1 49.1655 86.0454)" opacity="0.5" fill="#FFFFFF" font-family="'MyriadPro-Regular'" font-size="15.7442">LOGO</text>
<rect y="431.5" opacity="0.5" fill="#E6E6E6" width="169" height="47"/>
<text transform="matrix(1 0 0 1 28.1133 445.9141)" opacity="0.5" font-family="'MyriadPro-Regular'" font-size="11.8081">SOCIAL MEDIA/CONTACT</text>
<ellipse opacity="0.5" cx="42.217" cy="464.282" rx="10.168" ry="9.841"/>
<ellipse opacity="0.5" cx="128.154" cy="464.282" rx="10.168" ry="9.841"/>
<ellipse opacity="0.5" cx="85.513" cy="464.282" rx="10.168" ry="9.841"/>
<line opacity="0.5" fill="#CCCCCC" stroke="#000000" stroke-width="6" stroke-miterlimit="10" x1="161" y1="4.808" x2="138.115" y2="24.479"/>
<line opacity="0.5" fill="#CCCCCC" stroke="#000000" stroke-width="6" stroke-miterlimit="10" x1="161" y1="24.479" x2="138.115" y2="4.808"/>
<text transform="matrix(1 0 0 1 89.207 35.5)" opacity="0.6"><tspan x="0" y="0" font-family="'MyriadPro-Regular'" font-size="12">Collapsable </tspan><tspan x="0" y="14.4" font-family="'MyriadPro-Regular'" font-size="12">Sidebar </tspan></text>
</svg>
